<?xml version="1.0" standalone="no"?>
<!DOCTYPE svg PUBLIC "-//W3C//DTD SVG 20010904//EN"
 "http://www.w3.org/TR/2001/REC-SVG-20010904/DTD/svg10.dtd">
<svg version="1.0" xmlns="http://www.w3.org/2000/svg"
 width="300.000000pt" height="380.000000pt" viewBox="0 0 300.000000 380.000000"
 preserveAspectRatio="xMidYMid meet">
<metadata>
Created by potrace 1.10, written by Peter Selinger 2001-2011
</metadata>
<g transform="translate(0.000000,380.000000) scale(0.100000,-0.100000)"
fill="#000000" stroke="none">
<path d="M1612 3536 c-6 -13 -14 -40 -17 -60 -4 -20 -11 -36 -16 -36 -5 0 -9
-8 -9 -18 0 -9 -9 -34 -20 -55 -19 -36 -29 -91 -12 -72 4 6 18 37 31 70 30 80
36 90 52 90 15 0 28 56 21 88 -6 24 -17 21 -30 -7z"/>
<path d="M1650 3425 c0 -33 19 -72 21 -45 2 28 -3 55 -12 65 -5 5 -9 -2 -9
-20z"/>
<path d="M1680 3348 c0 -22 12 -58 19 -58 6 0 7 35 2 63 -2 12 -21 8 -21 -5z"/>
<path d="M1508 3274 c-5 -4 -8 -21 -8 -38 1 -26 2 -28 11 -13 11 19 8 63 -3
51z"/>
<path d="M1710 3267 c0 -15 50 -159 58 -167 3 -3 2 15 -2 40 -4 24 -12 47 -17
51 -6 3 -10 9 -9 13 1 3 -1 20 -5 36 -7 31 -25 51 -25 27z"/>
<path d="M1472 3177 c-14 -40 -15 -47 -3 -47 9 0 26 69 19 76 -2 2 -10 -11
-16 -29z"/>
<path d="M1436 3104 c-3 -9 -6 -22 -6 -31 0 -8 -7 -21 -15 -29 -8 -9 -15 -25
-15 -38 0 -12 -7 -31 -15 -42 -8 -10 -15 -27 -15 -36 0 -10 -9 -27 -20 -38
-25 -25 -16 -53 14 -44 32 9 41 21 28 37 -14 17 -7 46 34 135 19 40 34 79 34
87 0 20 -16 19 -24 -1z"/>
<path d="M1777 3083 c-3 -5 1 -21 8 -38 l13 -30 1 32 c1 30 -12 52 -22 36z"/>
<path d="M1810 2981 c0 -5 5 -22 10 -37 14 -36 3 -45 -59 -46 -28 0 -51 -4
-51 -9 0 -4 27 -6 60 -2 41 4 65 2 75 -7 25 -21 30 15 6 46 -12 15 -21 35 -21
45 0 11 -4 19 -10 19 -5 0 -10 -4 -10 -9z"/>
<path d="M2730 2940 c-37 -24 -199 -78 -239 -79 -24 -1 -54 -7 -65 -14 -12 -6
-30 -12 -41 -12 -61 -3 -135 -18 -135 -27 0 -7 17 -8 53 -3 28 4 63 9 77 11
14 2 45 10 69 19 49 18 102 17 109 -2 2 -7 -4 -16 -13 -19 -30 -12 -151 -121
-143 -129 5 -5 141 93 163 119 12 13 36 29 90 57 22 12 47 27 55 34 8 7 24 15
35 17 11 2 20 10 20 17 0 18 -16 23 -35 11z"/>
<path d="M2139 2799 c-104 -9 -143 -32 -44 -25 66 4 125 13 133 21 9 9 -20 10
-89 4z"/>
<path d="M550 2789 c0 -7 18 -31 40 -55 22 -24 40 -50 40 -58 0 -8 4 -16 8
-18 4 -1 23 -23 42 -48 90 -118 162 -194 289 -308 20 -18 46 -42 57 -53 18
-17 25 -19 43 -9 24 13 19 30 -9 30 -30 0 -206 167 -315 301 -86 105 -120 157
-110 167 3 4 26 5 50 3 68 -4 54 16 -17 24 -35 4 -72 14 -83 21 -24 17 -35 18
-35 3z"/>
<path d="M1850 2760 c-28 -5 -31 -8 -17 -14 23 -11 187 3 187 15 0 10 -117 10
-170 -1z"/>
<path d="M2323 2727 c-15 -13 -80 -59 -143 -102 -142 -96 -150 -102 -230 -178
-59 -57 -120 -97 -192 -129 -16 -7 -28 -16 -28 -20 0 -13 58 -9 72 6 8 7 24
17 36 20 12 4 22 12 22 17 0 5 9 9 20 9 11 0 20 -4 20 -10 0 -5 -7 -10 -15
-10 -8 0 -15 -7 -15 -15 0 -8 -6 -15 -14 -15 -7 0 -22 -12 -32 -26 -10 -14
-25 -32 -31 -39 -7 -8 -13 -27 -13 -43 0 -17 6 -32 13 -35 8 -2 12 -32 13 -98
0 -52 1 -104 2 -116 3 -39 18 -25 19 18 1 23 11 58 22 79 17 34 18 42 6 76 -7
21 -22 41 -34 46 -25 9 -30 64 -7 70 16 3 109 87 257 231 114 110 177 152 213
143 31 -8 79 28 57 43 -11 7 -9 16 14 44 40 54 20 76 -32 34z"/>
<path d="M816 2732 c-3 -6 18 -12 47 -15 83 -9 449 -7 487 2 24 6 -3 8 -90 8
-69 -1 -195 2 -282 6 -95 5 -158 4 -162 -1z"/>
<path d="M1440 2732 c-25 -2 -39 -7 -32 -11 7 -4 79 -6 160 -4 81 2 157 3 170
3 12 0 22 4 22 9 0 9 -228 11 -320 3z"/>
<path d="M1545 2654 c-10 -11 -25 -14 -44 -11 -58 12 -93 -50 -56 -99 8 -10
15 -29 15 -42 0 -27 28 -72 44 -72 12 0 44 -22 77 -52 11 -10 19 -29 19 -43 0
-29 -29 -34 -70 -10 -14 8 -35 19 -47 24 -12 6 -27 19 -33 31 -6 11 -16 20
-23 18 -7 -1 -21 3 -32 8 -50 27 -116 36 -198 29 -97 -8 -117 -16 -101 -42 12
-19 38 -21 107 -9 20 3 37 3 37 -1 0 -3 -12 -22 -26 -40 -29 -38 -22 -56 14
-42 14 5 25 20 28 39 5 21 12 30 25 30 11 0 19 -4 19 -10 0 -5 7 -10 16 -10
24 0 113 -61 120 -82 3 -10 16 -30 30 -45 13 -14 29 -43 36 -65 6 -21 15 -38
20 -38 4 0 8 -12 8 -27 1 -16 7 -39 15 -53 8 -14 14 -40 15 -59 0 -42 -37 -77
-92 -86 -21 -4 -38 -11 -38 -16 0 -5 -3 -8 -7 -7 -9 3 -178 -40 -208 -52 -11
-5 -38 -12 -60 -15 -22 -4 -53 -13 -70 -20 -48 -21 -164 -27 -224 -11 -75 19
-254 9 -313 -17 -18 -9 -89 -20 -158 -26 -128 -10 -225 -28 -248 -46 -36 -27
-52 -46 -52 -61 0 -13 7 -15 32 -10 18 4 65 9 103 12 39 3 90 11 115 19 54 17
340 26 445 15 39 -4 94 -17 124 -28 30 -12 58 -19 63 -16 5 4 69 8 141 11
l132 5 49 -49 48 -48 -6 -99 c-4 -54 -12 -108 -17 -119 -8 -14 -8 -26 2 -43
10 -19 10 -29 0 -51 -7 -15 -20 -66 -28 -113 -33 -186 -33 -198 1 -369 12 -62
12 -86 1 -155 l-13 -81 36 -70 c44 -82 88 -118 142 -113 45 4 49 32 5 36 -16
2 -42 15 -57 29 l-27 26 1 266 c1 182 5 277 13 301 7 19 23 71 35 115 12 44
28 96 35 115 27 76 45 138 45 153 0 58 75 183 164 273 64 65 96 103 96 112 0
6 5 12 12 14 6 2 12 12 14 21 2 13 -7 9 -36 -15 -21 -18 -41 -40 -44 -48 -3
-9 -20 -31 -38 -50 -18 -19 -31 -38 -30 -42 2 -8 -20 -12 -50 -9 -10 1 -18 -4
-18 -13 0 -8 -3 -16 -8 -18 -17 -7 -82 -132 -91 -175 -17 -84 -38 -159 -50
-181 -6 -11 -11 -29 -11 -39 0 -10 -7 -31 -15 -47 -8 -15 -15 -34 -15 -42 0
-7 -7 -35 -17 -61 -15 -43 -19 -89 -22 -260 -1 -30 -6 -53 -12 -53 -5 0 -9 8
-8 17 4 27 -12 133 -20 138 -8 5 -6 45 8 125 5 30 12 79 15 108 4 30 11 62 16
72 6 10 10 97 10 194 l0 174 -46 46 c-51 51 -38 49 -232 46 -89 -1 -128 3
-139 12 -23 19 -134 39 -243 44 -112 5 -136 12 -100 26 39 15 273 13 298 -3
17 -11 28 -11 55 -1 18 7 53 12 78 12 24 0 56 6 71 14 14 8 49 17 77 21 28 4
51 11 51 15 0 5 27 12 60 16 33 4 60 10 60 15 0 4 17 11 38 15 20 4 46 11 57
17 11 6 31 13 44 15 14 2 42 20 63 41 43 43 50 87 24 144 -8 18 -17 49 -21 70
-3 20 -10 37 -14 37 -5 0 -12 12 -15 26 -8 31 -88 138 -114 153 -15 9 -15 10
-1 11 9 0 22 -7 29 -15 7 -8 17 -15 23 -15 6 0 18 -7 28 -16 25 -22 84 -22
109 1 12 11 20 31 20 50 0 26 -9 40 -42 69 -71 59 -88 79 -88 103 0 12 -7 26
-15 31 -25 14 26 62 65 62 17 0 29 4 25 9 -7 13 32 8 69 -8 42 -17 70 -49 86
-99 11 -36 11 -46 -1 -70 -8 -15 -20 -31 -26 -35 -15 -9 -17 -83 -3 -92 6 -4
10 7 10 27 0 26 9 40 42 70 39 34 42 40 30 59 -7 11 -10 28 -7 38 7 23 -63
114 -105 136 -38 20 -94 19 -115 -1z m-195 -2116 c0 -45 -3 -59 -10 -48 -17
26 -12 110 7 110 2 0 3 -28 3 -62z"/>
<path d="M2252 2378 c-121 -123 -241 -248 -267 -278 -27 -30 -51 -57 -55 -60
-6 -4 -40 -69 -40 -76 0 -11 43 13 52 30 12 22 29 42 117 134 29 32 61 66 70
78 9 11 26 26 39 33 19 10 22 9 22 -9 0 -11 9 -37 20 -57 11 -21 20 -43 20
-50 0 -7 4 -13 10 -13 5 0 12 -11 16 -23 3 -13 32 -75 64 -138 33 -63 76 -147
96 -186 21 -40 35 -75 32 -79 -3 -3 -21 1 -40 9 -19 8 -59 18 -87 22 -29 4
-65 13 -79 21 -15 8 -43 14 -62 14 -19 0 -44 7 -54 15 -11 8 -35 15 -53 15
-19 0 -46 6 -61 14 -15 8 -45 15 -67 17 -22 2 -50 9 -62 17 -12 7 -27 11 -33
7 -21 -13 -9 -32 28 -43 97 -28 165 -42 201 -42 25 0 41 -5 45 -15 3 -9 18
-15 40 -15 20 0 50 -6 68 -14 18 -8 69 -22 113 -31 44 -9 98 -25 120 -36 69
-33 83 -22 40 29 -14 17 -25 34 -25 39 0 6 -12 32 -26 59 -25 46 -111 217
-159 314 -12 25 -36 72 -54 106 -22 43 -29 67 -24 81 5 12 59 77 122 147 154
171 151 167 145 177 -3 5 -7 9 -9 9 -2 0 -102 -100 -223 -222z"/>
<path d="M2084 2402 c-51 -48 -117 -111 -148 -140 -35 -33 -56 -61 -56 -75 0
-18 10 -11 53 38 28 32 98 105 155 162 57 57 100 103 95 103 -4 0 -49 -40 -99
-88z"/>
<path d="M1113 2294 c-25 -11 -12 -25 20 -22 17 2 32 8 32 13 0 11 -33 17 -52
9z"/>
<path d="M1361 2207 c-6 -8 -35 -26 -66 -41 -30 -14 -55 -31 -55 -37 0 -6 -4
-8 -8 -5 -4 2 -27 -4 -51 -15 -24 -10 -53 -19 -65 -19 -33 0 -76 -46 -76 -80
0 -17 -4 -30 -9 -30 -5 0 -12 -15 -16 -32 -3 -18 -14 -47 -23 -65 -16 -33 -11
-56 9 -36 6 6 24 48 40 93 27 78 62 129 91 134 36 5 224 92 234 108 3 4 14 8
25 8 10 0 19 7 19 15 0 19 -34 20 -49 2z"/>
<path d="M1744 1825 c-3 -14 -10 -22 -15 -19 -5 3 -9 0 -9 -5 0 -21 27 -11 38
14 15 31 15 35 2 35 -5 0 -12 -11 -16 -25z"/>
<path d="M916 1538 c-3 -18 -7 -53 -10 -78 -2 -25 -9 -70 -16 -100 -9 -41 -11
-122 -6 -310 6 -262 11 -307 69 -585 14 -66 28 -137 32 -157 10 -65 22 -42 28
54 11 186 32 277 95 408 36 77 47 111 54 180 10 91 23 143 44 175 8 11 14 35
13 55 0 34 -1 34 -11 10 -6 -14 -19 -41 -29 -61 -17 -34 -49 -185 -49 -236 0
-13 -19 -60 -41 -105 -57 -114 -70 -151 -83 -243 -11 -71 -13 -77 -23 -55 -19
43 -44 170 -59 295 -18 152 -22 609 -5 629 16 20 27 156 13 156 -6 0 -13 -15
-16 -32z"/>
</g>
</svg>
